<svg width="26" height="26" viewBox="0 0 50 50" fill="none" xmlns="http://www.w3.org/2000/svg">
<g style="mix-blend-mode:luminosity" clip-path="url(#clip0_105_101)" filter="url(#filter0_d_105_101)">
<rect x="19" y="13" width="18" height="18" rx="4" stroke="#D8D4D4" stroke-width="2"/>
<path d="M20.5 21H29L26 24H18L20.5 21Z" fill="#CFCACA"/>
<path d="M15 19L20.5 13.5" stroke="url(#paint0_linear_105_101)"/>
<line x1="29.6464" y1="20.6464" x2="36.6464" y2="13.6464" stroke="url(#paint1_linear_105_101)"/>
<line x1="29.6464" y1="36.6464" x2="36.6464" y2="29.6464" stroke="url(#paint2_linear_105_101)"/>
<line x1="13.6464" y1="35.6464" x2="20.6464" y2="28.6464" stroke="url(#paint3_linear_105_101)"/>
<rect x="13" y="19" width="18" height="18" rx="4" stroke="white" stroke-width="2"/>
<rect x="18" y="24" width="8" height="8" fill="white"/>
<path d="M26 24L29 21V29L26 32V24Z" fill="white"/>
</g>
<defs>
<filter id="filter0_d_105_101" x="0.9" y="0.9" width="48.2" height="48.2" filterUnits="userSpaceOnUse" color-interpolation-filters="sRGB">
<feFlood flood-opacity="0" result="BackgroundImageFix"/>
<feColorMatrix in="SourceAlpha" type="matrix" values="0 0 0 0 0 0 0 0 0 0 0 0 0 0 0 0 0 0 127 0" result="hardAlpha"/>
<feOffset/>
<feGaussianBlur stdDeviation="5.55"/>
<feComposite in2="hardAlpha" operator="out"/>
<feColorMatrix type="matrix" values="0 0 0 0 0 0 0 0 0 0 0 0 0 0 0 0 0 0 0.73 0"/>
<feBlend mode="normal" in2="BackgroundImageFix" result="effect1_dropShadow_105_101"/>
<feBlend mode="normal" in="SourceGraphic" in2="effect1_dropShadow_105_101" result="shape"/>
</filter>
<linearGradient id="paint0_linear_105_101" x1="7.0532e+07" y1="7.0532e+07" x2="7.0532e+07" y2="7.0532e+07" gradientUnits="userSpaceOnUse">
<stop stop-color="white"/>
<stop offset="1" stop-color="#D8D4D4"/>
</linearGradient>
<linearGradient id="paint1_linear_105_101" x1="30.3536" y1="21.3536" x2="37.3536" y2="14.3536" gradientUnits="userSpaceOnUse">
<stop stop-color="white"/>
<stop offset="1" stop-color="#D8D4D4"/>
</linearGradient>
<linearGradient id="paint2_linear_105_101" x1="30.3536" y1="37.3536" x2="37.3536" y2="30.3536" gradientUnits="userSpaceOnUse">
<stop stop-color="white"/>
<stop offset="1" stop-color="#D8D4D4"/>
</linearGradient>
<linearGradient id="paint3_linear_105_101" x1="14.3536" y1="36.3536" x2="21.3536" y2="29.3536" gradientUnits="userSpaceOnUse">
<stop stop-color="white"/>
<stop offset="1" stop-color="#D8D4D4"/>
</linearGradient>
<clipPath id="clip0_105_101">
<rect width="26" height="26" fill="white" transform="translate(12 12)"/>
</clipPath>
</defs>
</svg>
